{
  "accessors": [
    {
      "bufferView": 0,
      "byteOffset": 0,
      "componentType": 5123,
      "count": 72,
      "type": "SCALAR",
      "max": [
        59
      ],
      "min": [
        0
      ]
    },
    {
      "bufferView": 1,
      "byteOffset": 0,
      "componentType": 5126,
      "count": 60,
      "type": "VEC3",
      "max": [
        0.05849301815032959,
        0.009299896657466888,
        0.47144395112991333
      ],
      "min": [
        -0.058428406715393066,
        -0.009660687297582626,
        -0.4714439809322357
      ],
      "name": "POSITION"
    },
    {
      "bufferView": 1,
      "byteOffset": 12,
      "componentType": 5126,
      "count": 60,
      "type": "VEC3",
      "max": [
        0.7920821905136108,
        0.9999571442604065,
        0.792090117931366
      ],
      "min": [
        -0.7920821905136108,
        -0.9999128580093384,
        -0.7920902371406555
      ],
      "name": "NORMAL"
    },
    {
      "bufferView": 1,
      "byteOffset": 24,
      "componentType": 5126,
      "count": 60,
      "type": "VEC2",
      "max": [
        0,
        1
      ],
      "min": [
        0,
        1
      ],
      "name": "TEXCOORD_0"
    },
    {
      "bufferView": 0,
      "byteOffset": 144,
      "componentType": 5123,
      "count": 2604,
      "type": "SCALAR",
      "max": [
        2154
      ],
      "min": [
        0
      ]
    },
    {
      "bufferView": 2,
      "byteOffset": 0,
      "componentType": 5126,
      "count": 2155,
      "type": "VEC3",
      "max": [
        1.8188105821609497,
        0.25769516825675964,
        0.5601421594619751
      ],
      "min": [
        -1.1577930450439453,
        -0.15684813261032104,
        -0.5608965158462524
      ],
      "name": "POSITION"
    },
    {
      "bufferView": 2,
      "byteOffset": 12,
      "componentType": 5126,
      "count": 2155,
      "type": "VEC3",
      "max": [
        1.0000044107437134,
        1.0000044107437134,
        1.0000044107437134
      ],
      "min": [
        -1.0000044107437134,
        -1.0000044107437134,
        -1.0000044107437134
      ],
      "name": "NORMAL"
    },
    {
      "bufferView": 2,
      "byteOffset": 24,
      "componentType": 5126,
      "count": 2155,
      "type": "VEC2",
      "max": [
        0.8194349408149719,
        1
      ],
      "min": [
        0,
        0
      ],
      "name": "TEXCOORD_0"
    },
    {
      "bufferView": 0,
      "byteOffset": 5352,
      "componentType": 5123,
      "count": 2496,
      "type": "SCALAR",
      "max": [
        2083
      ],
      "min": [
        0
      ]
    },
    {
      "bufferView": 3,
      "byteOffset": 0,
      "componentType": 5126,
      "count": 2084,
      "type": "VEC3",
      "max": [
        1.1846858263015747,
        0.19880902767181396,
        0.5739130973815918
      ],
      "min": [
        -1.1849008798599243,
        -0.1870231181383133,
        -0.5739132761955261
      ],
      "name": "POSITION"
    },
    {
      "bufferView": 3,
      "byteOffset": 12,
      "componentType": 5126,
      "count": 2084,
      "type": "VEC3",
      "max": [
        0.9996100664138794,
        1.0000044107437134,
        1.0000044107437134
      ],
      "min": [
        -0.9996511340141296,
        -0.9793848395347595,
        -1.0000044107437134
      ],
      "name": "NORMAL"
    },
    {
      "bufferView": 3,
      "byteOffset": 24,
      "componentType": 5126,
      "count": 2084,
      "type": "VEC2",
      "max": [
        0.875,
        1
      ],
      "min": [
        0,
        0
      ],
      "name": "TEXCOORD_0"
    },
    {
      "bufferView": 0,
      "byteOffset": 10344,
      "componentType": 5123,
      "count": 5964,
      "type": "SCALAR",
      "max": [
        4969
      ],
      "min": [
        0
      ]
    },
    {
      "bufferView": 4,
      "byteOffset": 0,
      "componentType": 5126,
      "count": 4970,
      "type": "VEC3",
      "max": [
        0.4759455919265747,
        0.0678105354309082,
        0.41091784834861755
      ],
      "min": [
        -0.4749809503555298,
        -0.06540019810199738,
        -0.41099298000335693
      ],
      "name": "POSITION"
    },
    {
      "bufferView": 4,
      "byteOffset": 12,
      "componentType": 5126,
      "count": 4970,
      "type": "VEC3",
      "max": [
        0.9903398752212524,
        0.9903476238250732,
        1.000003695487976
      ],
      "min": [
        -0.9903399348258972,
        -0.13869312405586243,
        -1.0000038146972656
      ],
      "name": "NORMAL"
    },
    {
      "bufferView": 4,
      "byteOffset": 24,
      "componentType": 5126,
      "count": 4970,
      "type": "VEC2",
      "max": [
        0,
        1
      ],
      "min": [
        0,
        1
      ],
      "name": "TEXCOORD_0"
    },
    {
      "bufferView": 0,
      "byteOffset": 22272,
      "componentType": 5123,
      "count": 2490,
      "type": "SCALAR",
      "max": [
        2057
      ],
      "min": [
        0
      ]
    },
    {
      "bufferView": 5,
      "byteOffset": 0,
      "componentType": 5126,
      "count": 2058,
      "type": "VEC3",
      "max": [
        1.589094877243042,
        0.3740471601486206,
        0.14654499292373657
      ],
      "min": [
        -1.4415687322616577,
        -0.43012112379074097,
        -0.89019376039505
      ],
      "name": "POSITION"
    },
    {
      "bufferView": 5,
      "byteOffset": 12,
      "componentType": 5126,
      "count": 2058,
      "type": "VEC3",
      "max": [
        1.0000044107437134,
        1.0000044107437134,
        1.0000044107437134
      ],
      "min": [
        -1.0000044107437134,
        -0.9999983310699463,
        -1.0000044107437134
      ],
      "name": "NORMAL"
    },
    {
      "bufferView": 5,
      "byteOffset": 24,
      "componentType": 5126,
      "count": 2058,
      "type": "VEC2",
      "max": [
        0.625163197517395,
        1.0002130270004272
      ],
      "min": [
        0,
        -4.112720489501953E-05
      ],
      "name": "TEXCOORD_0"
    },
    {
      "bufferView": 0,
      "byteOffset": 27252,
      "componentType": 5123,
      "count": 162,
      "type": "SCALAR",
      "max": [
        136
      ],
      "min": [
        0
      ]
    },
    {
      "bufferView": 6,
      "byteOffset": 0,
      "componentType": 5126,
      "count": 137,
      "type": "VEC3",
      "max": [
        0.5525221228599548,
        0.3740471601486206,
        0.1063554584980011
      ],
      "min": [
        -1.0596507787704468,
        0.06007044389843941,
        -0.850004255771637
      ],
      "name": "POSITION"
    },
    {
      "bufferView": 6,
      "byteOffset": 12,
      "componentType": 5126,
      "count": 137,
      "type": "VEC3",
      "max": [
        0.13873422145843506,
        0.9958069920539856,
        0.9342164397239685
      ],
      "min": [
        -0.3173219561576843,
        0.35623815655708313,
        -0.934216320514679
      ],
      "name": "NORMAL"
    },
    {
      "bufferView": 6,
      "byteOffset": 24,
      "componentType": 5126,
      "count": 137,
      "type": "VEC2",
      "max": [
        0.6250000596046448,
        1
      ],
      "min": [
        0.6249998211860657,
        0.014162540435791016
      ],
      "name": "TEXCOORD_0"
    },
    {
      "bufferView": 0,
      "byteOffset": 27576,
      "componentType": 5123,
      "count": 36,
      "type": "SCALAR",
      "max": [
        28
      ],
      "min": [
        0
      ]
    },
    {
      "bufferView": 7,
      "byteOffset": 0,
      "componentType": 5126,
      "count": 29,
      "type": "VEC3",
      "max": [
        -1.2687612771987915,
        -0.01407170295715332,
        0.1356324553489685
      ],
      "min": [
        -1.4331272840499878,
        -0.08663594722747803,
        -0.879281222820282
      ],
      "name": "POSITION"
    },
    {
      "bufferView": 7,
      "byteOffset": 12,
      "componentType": 5126,
      "count": 29,
      "type": "VEC3",
      "max": [
        -0.7867006063461304,
        0.2724630534648895,
        0.6133855581283569
      ],
      "min": [
        -0.9632350206375122,
        0.06977661699056625,
        -0.6133856177330017
      ],
      "name": "NORMAL"
    },
    {
      "bufferView": 7,
      "byteOffset": 24,
      "componentType": 5126,
      "count": 29,
      "type": "VEC2",
      "max": [
        0.6219583749771118,
        1.0002130270004272
      ],
      "min": [
        0.5929179191589355,
        -4.112720489501953E-05
      ],
      "name": "TEXCOORD_0"
    },
    {
      "bufferView": 0,
      "byteOffset": 27648,
      "componentType": 5123,
      "count": 24,
      "type": "SCALAR",
      "max": [
        20
      ],
      "min": [
        0
      ]
    },
    {
      "bufferView": 8,
      "byteOffset": 0,
      "componentType": 5126,
      "count": 21,
      "type": "VEC3",
      "max": [
        1.588675618171692,
        0.13075421750545502,
        0.1415385603904724
      ],
      "min": [
        1.5837204456329346,
        0.10020862519741058,
        -0.8851873278617859
      ],
      "name": "POSITION"
    },
    {
      "bufferView": 8,
      "byteOffset": 12,
      "componentType": 5126,
      "count": 21,
      "type": "VEC3",
      "max": [
        0.9871006608009338,
        -0.1601283699274063,
        2.3482010647057905E-07
      ],
      "min": [
        0.9871006011962891,
        -0.16012845933437347,
        -0
      ],
      "name": "NORMAL"
    },
    {
      "bufferView": 8,
      "byteOffset": 24,
      "componentType": 5126,
      "count": 21,
      "type": "VEC2",
      "max": [
        0.6236281991004944,
        0.375
      ],
      "min": [
        0.6074168086051941,
        0.25116389989852905
      ],
      "name": "TEXCOORD_0"
    },
    {
      "bufferView": 0,
      "byteOffset": 27696,
      "componentType": 5123,
      "count": 216,
      "type": "SCALAR",
      "max": [
        179
      ],
      "min": [
        0
      ]
    },
    {
      "bufferView": 9,
      "byteOffset": 0,
      "componentType": 5126,
      "count": 180,
      "type": "VEC3",
      "max": [
        0.5401896238327026,
        0.3266640901565552,
        0.11230280995368958
      ],
      "min": [
        -0.6539040803909302,
        0.07568930089473724,
        -0.8559516072273254
      ],
      "name": "POSITION"
    },
    {
      "bufferView": 9,
      "byteOffset": 12,
      "componentType": 5126,
      "count": 180,
      "type": "VEC3",
      "max": [
        0.9956039786338806,
        0.992306649684906,
        0.9343565702438354
      ],
      "min": [
        -0.9895612001419067,
        -0.9988390207290649,
        -0.9343565702438354
      ],
      "name": "NORMAL"
    },
    {
      "bufferView": 9,
      "byteOffset": 24,
      "componentType": 5126,
      "count": 180,
      "type": "VEC2",
      "max": [
        0,
        1
      ],
      "min": [
        0,
        1
      ],
      "name": "TEXCOORD_0"
    },
    {
      "bufferView": 0,
      "byteOffset": 28128,
      "componentType": 5123,
      "count": 126,
      "type": "SCALAR",
      "max": [
        103
      ],
      "min": [
        0
      ]
    },
    {
      "bufferView": 10,
      "byteOffset": 0,
      "componentType": 5126,
      "count": 104,
      "type": "VEC3",
      "max": [
        1.589094877243042,
        0.278547465801239,
        0.14639079570770264
      ],
      "min": [
        0.5525219440460205,
        -0.20584282279014587,
        -0.8900395631790161
      ],
      "name": "POSITION"
    },
    {
      "bufferView": 10,
      "byteOffset": 12,
      "componentType": 5126,
      "count": 104,
      "type": "VEC3",
      "max": [
        0.8718888163566589,
        0.9903345108032227,
        0.4919102191925049
      ],
      "min": [
        -0.9525734186172485,
        -0.13661381602287292,
        -0.49189743399620056
      ],
      "name": "NORMAL"
    },
    {
      "bufferView": 10,
      "byteOffset": 24,
      "componentType": 5126,
      "count": 104,
      "type": "VEC2",
      "max": [
        0.625163197517395,
        0.375
      ],
      "min": [
        0.4450378119945526,
        0.24980640411376953
      ],
      "name": "TEXCOORD_0"
    },
    {
      "bufferView": 0,
      "byteOffset": 28380,
      "componentType": 5123,
      "count": 12648,
      "type": "SCALAR",
      "max": [
        10411
      ],
      "min": [
        0
      ]
    },
    {
      "bufferView": 11,
      "byteOffset": 0,
      "componentType": 5126,
      "count": 10412,
      "type": "VEC3",
      "max": [
        1.239932656288147,
        0.2529178261756897,
        0.5571810603141785
      ],
      "min": [
        -1.2399382591247559,
        -0.2529178559780121,
        -0.5570807456970215
      ],
      "name": "POSITION"
    },
    {
      "bufferView": 11,
      "byteOffset": 12,
      "componentType": 5126,
      "count": 10412,
      "type": "VEC3",
      "max": [
        1.0000044107437134,
        1.0000044107437134,
        0.9945825934410095
      ],
      "min": [
        -1.0000044107437134,
        -1.0000044107437134,
        -0.9945825338363647
      ],
      "name": "NORMAL"
    },
    {
      "bufferView": 11,
      "byteOffset": 24,
      "componentType": 5126,
      "count": 10412,
      "type": "VEC2",
      "max": [
        0,
        1
      ],
      "min": [
        0,
        1
      ],
      "name": "TEXCOORD_0"
    }
  ],
  "asset": {
    "generator": "Aspose.3D 23.9.0",
    "version": "2.0"
  },
  "buffers": [
    {
      "uri": "data:application/octet-stream;base64,",
      "byteLength": 912540
    }
  ],
  "bufferViews": [
    {
      "buffer": 0,
      "byteOffset": 0,
      "byteLength": 53676,
      "target": 34963
    },
    {
      "buffer": 0,
      "byteOffset": 53680,
      "byteLength": 2304,
      "byteStride": 32,
      "target": 34962
    },
    {
      "buffer": 0,
      "byteOffset": 55988,
      "byteLength": 83328,
      "byteStride": 32,
      "target": 34962
    },
    {
      "buffer": 0,
      "byteOffset": 139320,
      "byteLength": 79872,
      "byteStride": 32,
      "target": 34962
    },
    {
      "buffer": 0,
      "byteOffset": 219196,
      "byteLength": 190848,
      "byteStride": 32,
      "target": 34962
    },
    {
      "buffer": 0,
      "byteOffset": 410048,
      "byteLength": 79680,
      "byteStride": 32,
      "target": 34962
    },
    {
      "buffer": 0,
      "byteOffset": 489732,
      "byteLength": 5184,
      "byteStride": 32,
      "target": 34962
    },
    {
      "buffer": 0,
      "byteOffset": 494920,
      "byteLength": 1152,
      "byteStride": 32,
      "target": 34962
    },
    {
      "buffer": 0,
      "byteOffset": 496076,
      "byteLength": 768,
      "byteStride": 32,
      "target": 34962
    },
    {
      "buffer": 0,
      "byteOffset": 496848,
      "byteLength": 6912,
      "byteStride": 32,
      "target": 34962
    },
    {
      "buffer": 0,
      "byteOffset": 503764,
      "byteLength": 4032,
      "byteStride": 32,
      "target": 34962
    },
    {
      "buffer": 0,
      "byteOffset": 507800,
      "byteLength": 404736,
      "byteStride": 32,
      "target": 34962
    }
  ],
  "materials": [
    {
      "name": "Material.004",
      "pbrMetallicRoughness": {
        "baseColorFactor": [
          0,
          0,
          0,
          1
        ],
        "metallicFactor": 1,
        "roughnessFactor": 1
      },
      "emissiveFactor": [
        0.8354499357157295,
        0.08250581999604378,
        0.008105938853166128
      ],
      "alphaMode": "OPAQUE",
      "doubleSided": true
    },
    {
      "name": "Material.005",
      "pbrMetallicRoughness": {
        "baseColorFactor": [
          0,
          0,
          0,
          1
        ],
        "metallicFactor": 0.1651376187801361,
        "roughnessFactor": 0.5
      },
      "emissiveFactor": [
        0,
        0,
        0
      ],
      "alphaMode": "OPAQUE",
      "doubleSided": true
    },
    {
      "name": "Material.005",
      "pbrMetallicRoughness": {
        "baseColorFactor": [
          0,
          0,
          0,
          1
        ],
        "metallicFactor": 0.1651376187801361,
        "roughnessFactor": 0.5
      },
      "emissiveFactor": [
        0,
        0,
        0
      ],
      "alphaMode": "OPAQUE",
      "doubleSided": true
    },
    {
      "name": "Material.002",
      "pbrMetallicRoughness": {
        "baseColorFactor": [
          0.0028308252803981304,
          0.00407756632193923,
          0.020791247487068176,
          1
        ],
        "metallicFactor": 1,
        "roughnessFactor": 0.07339449226856232
      },
      "emissiveFactor": [
        0,
        0,
        0
      ],
      "alphaMode": "OPAQUE",
      "doubleSided": true
    },
    {
      "name": "Material.001",
      "pbrMetallicRoughness": {
        "baseColorFactor": [
          0.3427751660346985,
          0.3427751660346985,
          0.3427751660346985,
          1
        ],
        "metallicFactor": 1,
        "roughnessFactor": 0.16972476243972778
      },
      "emissiveFactor": [
        0,
        0,
        0
      ],
      "alphaMode": "OPAQUE",
      "doubleSided": true
    },
    {
      "name": "Window",
      "pbrMetallicRoughness": {
        "baseColorFactor": [
          0,
          0,
          0,
          1
        ],
        "metallicFactor": 1,
        "roughnessFactor": 0
      },
      "emissiveFactor": [
        0,
        0,
        0
      ],
      "alphaMode": "OPAQUE",
      "doubleSided": true
    },
    {
      "name": "Material.003",
      "pbrMetallicRoughness": {
        "baseColorFactor": [
          0,
          0,
          0,
          1
        ],
        "metallicFactor": 1,
        "roughnessFactor": 1
      },
      "emissiveFactor": [
        1,
        1,
        1
      ],
      "alphaMode": "OPAQUE",
      "doubleSided": true
    },
    {
      "name": "Material.006",
      "pbrMetallicRoughness": {
        "baseColorFactor": [
          0,
          0,
          0,
          1
        ],
        "metallicFactor": 1,
        "roughnessFactor": 1
      },
      "emissiveFactor": [
        1,
        0.009537543532994741,
        0
      ],
      "alphaMode": "OPAQUE",
      "doubleSided": true
    },
    {
      "name": "Material.007",
      "pbrMetallicRoughness": {
        "baseColorFactor": [
          0.001240567653439939,
          0.001240567653439939,
          0.001240567653439939,
          1
        ],
        "metallicFactor": 0.7798165082931519,
        "roughnessFactor": 0.03211009502410889
      },
      "emissiveFactor": [
        0,
        0,
        0
      ],
      "alphaMode": "OPAQUE",
      "doubleSided": true
    },
    {
      "name": "Material.008",
      "pbrMetallicRoughness": {
        "baseColorFactor": [
          0,
          0,
          0,
          1
        ],
        "metallicFactor": 0.6238532066345215,
        "roughnessFactor": 0.5550458431243896
      },
      "emissiveFactor": [
        0,
        0,
        0
      ],
      "alphaMode": "OPAQUE",
      "doubleSided": true
    },
    {
      "name": "Material.009",
      "pbrMetallicRoughness": {
        "baseColorFactor": [
          0,
          0,
          0,
          1
        ],
        "metallicFactor": 0,
        "roughnessFactor": 0.6009174585342407
      },
      "emissiveFactor": [
        0,
        0,
        0
      ],
      "alphaMode": "OPAQUE",
      "doubleSided": true
    }
  ],
  "meshes": [
    {
      "primitives": [
        {
          "attributes": {
            "POSITION": 1,
            "NORMAL": 2,
            "TEXCOORD_0": 3
          },
          "indices": 0,
          "material": 0,
          "mode": 4
        }
      ]
    },
    {
      "primitives": [
        {
          "attributes": {
            "POSITION": 5,
            "NORMAL": 6,
            "TEXCOORD_0": 7
          },
          "indices": 4,
          "material": 1,
          "mode": 4
        }
      ]
    },
    {
      "primitives": [
        {
          "attributes": {
            "POSITION": 9,
            "NORMAL": 10,
            "TEXCOORD_0": 11
          },
          "indices": 8,
          "material": 2,
          "mode": 4
        }
      ]
    },
    {
      "primitives": [
        {
          "attributes": {
            "POSITION": 13,
            "NORMAL": 14,
            "TEXCOORD_0": 15
          },
          "indices": 12,
          "material": 3,
          "mode": 4
        }
      ]
    },
    {
      "primitives": [
        {
          "attributes": {
            "POSITION": 17,
            "NORMAL": 18,
            "TEXCOORD_0": 19
          },
          "indices": 16,
          "material": 4,
          "mode": 4
        },
        {
          "attributes": {
            "POSITION": 21,
            "NORMAL": 22,
            "TEXCOORD_0": 23
          },
          "indices": 20,
          "material": 5,
          "mode": 4
        },
        {
          "attributes": {
            "POSITION": 25,
            "NORMAL": 26,
            "TEXCOORD_0": 27
          },
          "indices": 24,
          "material": 6,
          "mode": 4
        },
        {
          "attributes": {
            "POSITION": 29,
            "NORMAL": 30,
            "TEXCOORD_0": 31
          },
          "indices": 28,
          "material": 7,
          "mode": 4
        },
        {
          "attributes": {
            "POSITION": 33,
            "NORMAL": 34,
            "TEXCOORD_0": 35
          },
          "indices": 32,
          "material": 8,
          "mode": 4
        },
        {
          "attributes": {
            "POSITION": 37,
            "NORMAL": 38,
            "TEXCOORD_0": 39
          },
          "indices": 36,
          "material": 9,
          "mode": 4
        }
      ]
    },
    {
      "primitives": [
        {
          "attributes": {
            "POSITION": 41,
            "NORMAL": 42,
            "TEXCOORD_0": 43
          },
          "indices": 40,
          "material": 10,
          "mode": 4
        }
      ]
    }
  ],
  "nodes": [
    {
      "matrix": [
        1,
        0,
        0,
        0,
        0,
        1,
        0,
        0,
        0,
        0,
        1,
        0,
        -1.398655891418457,
        0.3578784167766571,
        0,
        1
      ],
      "mesh": 0,
      "name": "Plane.001"
    },
    {
      "matrix": [
        1,
        0,
        0,
        0,
        0,
        1,
        0,
        0,
        0,
        0,
        1,
        0,
        -0.3338509202003479,
        0.33129221200942993,
        0.0003771319461520761,
        1
      ],
      "mesh": 1,
      "name": "Plane"
    },
    {
      "matrix": [
        1,
        0,
        0,
        0,
        0,
        1,
        0,
        0,
        0,
        0,
        1,
        0,
        -0.05382567644119263,
        0.2519647479057312,
        0,
        1
      ],
      "mesh": 2,
      "name": "Cube.005"
    },
    {
      "matrix": [
        1,
        0,
        0,
        0,
        0,
        1,
        0,
        0,
        0,
        0,
        1,
        0,
        0.9857386350631714,
        0.8103269934654236,
        3.7550926208496094E-05,
        1
      ],
      "mesh": 3,
      "name": "Cube.002"
    },
    {
      "matrix": [
        1,
        0,
        0,
        0,
        0,
        1,
        0,
        0,
        0,
        0,
        1,
        0,
        -0.07727934420108795,
        0.6045652031898499,
        0.37182438373565674,
        1
      ],
      "mesh": 4,
      "name": "Cube.001"
    },
    {
      "matrix": [
        1,
        0,
        0,
        0,
        0,
        1,
        0,
        0,
        0,
        0,
        1,
        0,
        -0.05227595567703247,
        0.25109168887138367,
        -4.9620866775512695E-05,
        1
      ],
      "mesh": 5,
      "name": "Circle.002"
    }
  ],
  "scene": 0,
  "scenes": [
    {
      "nodes": [
        0,
        1,
        2,
        3,
        4,
        5
      ]
    }
  ]
}